<?xml version="1.0" encoding="UTF-8"?><svg id="Layer_1" xmlns="http://www.w3.org/2000/svg" width="481" height="312" viewBox="0 0 481 312"><defs><style>.cls-1{fill:#f8f8f8;}.cls-2{fill:#fff;}.cls-3{fill:#cf3338;}.cls-4{fill:#a87552;}.cls-5{fill:#64666b;}.cls-6{fill:#313e48;}.cls-7{stroke-width:2px;}.cls-7,.cls-8{fill:none;stroke:#000;}.cls-8{stroke-miterlimit:10;}.cls-9{isolation:isolate;}</style></defs><rect class="cls-8" x=".5" y=".5" width="480" height="311"/><g><path id="Path_9994" class="cls-4" d="M241.48,88.08c-.26,1.54-1.89,6.52-2.31,8.66s-.43,4.37-1.8,4.37-1.54-3.69-.69-6.34c.77-2.66,1.8-7.8,1.8-7.8l3,1.11Z"/><path id="Path_9995" d="M270.11,18.2c-1.29,8.57-5.49,12.95-15.35,16.29-1.03,.34,.17,11.32,11.15,17.32,26.75-6.52,14.4-33.61,14.4-33.61h-10.2Z"/><path id="Path_9996" class="cls-4" d="M339.81,121.43c-3.17-.51-3.17-2.31-4.12-3-.86-.69-10.29,1.89-8.32,4.2,1.89,2.31,.69,4.72,2.4,6.77s10.12-1.89,10.12-1.89l-.09-6.09Z"/><path id="Path_9997" class="cls-4" d="M258.62,170.38c-.6-3.69,3.69-12,3.69-12,0,0-4.12-6-8.57-1.46-2.06,4.03-5.23,5.74-5.83,6.6-.51,.77,10.72,6.86,10.72,6.86"/><path id="Path_9998" d="M249.79,161.89c-.43-.34-2.74,.17-4.63,2.14-1.37,1.54-2.23,3.52-2.49,5.57,0,.94,5.83,6.34,10.03,9.26,4.2,3,7.12,5.06,9.09,5.66,1.97,.6,4.72-.77,4.37-4.46-.34-3.69-3.09-5.14-4.8-7.03-1.71-1.97-1.63-4.54-2.14-4.97s-1.46,1.54-4.54-.43-4.46-5.4-4.89-5.74"/><path id="Path_9999" d="M328.84,127c-.51,1.63-.26,3.43,.69,4.89,1.03,1.89,2.57,3.43,4.46,4.46,.86,.34,8.14-3.6,12.26-6.69,4.12-3.09,8.14-6.17,8.57-6.6,.34-.43,.34-4.97-3.34-5.83s-5.83,1.37-8.14,2.4-4.46,.51-5.06,.94,1.03,.94-1.8,3.26c-2.91,2.23-7.29,2.74-7.63,3.17"/><path id="Path_10000" class="cls-1" d="M267.2,87.73c.34,11.83,5.92,27.35,3.17,37.21-2.74,9.86-19.72,28.81-19.98,29.75s1.54,5.14,3.69,7.46,6.6,3.34,7.63,2.91,17.75-21.35,22.12-30.01c4.37-8.66,7.72-27.18,7.72-27.18,0,0,11.92-4.63,18.52-1.8,6.52,2.83,15.69,16.12,16.29,16.63s4.03,.94,7.2-1.03c3.17-2.06,5.06-4.29,4.63-5.14s-8.14-18.26-14.92-24.26c-6.77-6.09-31.64-7.12-31.64-7.12l-24.43,2.57Z"/><path id="Path_10001" class="cls-4" d="M326.7,55.5c1.54-.17,3.6-3.09,5.57-3.34,2.06-.17,3.43-.17,5.66-1.11s2.4,2.49,0,3.6-12.95,4.12-12.95,4.12l1.71-3.26Z"/><path id="Path_10002" class="cls-4" d="M338.19,53.95c2.83-.34,4.2-.43,4.72,.34,.26,.94-.17,1.89-1.03,2.31,2.23,.86,.86,2.91,.09,3.26,2.14,.94,.94,2.66-.17,2.83,.43,1.37,.26,2.23-3.26,2.57s-9-.69-10.8-1.11-.69-7.03-.69-7.03l11.15-3.17Z"/><path id="Path_10003" class="cls-5" d="M288.8,40.32c3.52,5.49,8.49,13.63,12.6,14.92,4.12,1.29,22.98-.09,25.46-.09s3.86,10.29,1.37,10.8-25.46,2.31-30.86-.17-10.29-7.37-10.29-7.37l.26-18.26,1.46,.17Z"/><path id="Path_10004" d="M227.67,139.69c-1.8,0-33.69-25.63-34.21-27.44-.43-1.8,17.15-23.83,19.03-23.75,1.97,.09,33.87,25.55,34.21,27.44s-17.23,23.83-19.03,23.75"/><path id="Path_10005" d="M235.9,108.65c-.77,0-1.37-.6-1.37-1.37,0-.34,.09-.6,.34-.86,2.06-2.57,4.46-5.66,5.32-7.03-2.14-2.14-10.12-8.83-12-9.52-1.03,.51-3.86,3.77-6.26,7.2-.43,.6-1.29,.77-1.97,.34-.6-.43-.77-1.29-.34-1.89,2.66-3.86,6.34-8.4,8.57-8.4,.6,0,1.8,0,8.4,5.4,6.34,5.23,6.52,6,6.6,6.34,.17,.77,.34,1.29-6.09,9.35-.34,.26-.77,.43-1.2,.43h0Z"/><path id="Path_10006" class="cls-4" d="M234.27,83.96c-1.37,1.03-5.92,6.34-6.69,7.63-.77,1.2-1.89,3.86,.26,3.86-1.11,1.8-.34,3.34,1.37,3.17-.6,1.71,1.46,2.57,2.57,1.54,.34,1.71,2.31,1.03,3.94-.34s1.11-4.03,2.66-7.12c.6-1.2,4.37-4.37,3.34-5.74-1.46-2.23-7.46-3-7.46-3"/><path id="Path_10007" class="cls-5" d="M233.42,83.53c-.43,.6,1.63,3.09,3.86,4.2,2.23,1.11,4.63,2.23,5.23,1.8s5.57-7.8,13.2-14.57c7.63-6.77,13.03-11.66,13.03-11.66,0,0-.94,5.4-1.37,12.26-.26,4.03-.34,8.06-.17,12.17,0,0,4.63,2.83,13.29,1.54,8.66-1.29,11.15-4.03,11.15-4.03,0,0,.17-6.43,.34-9.52,.09-2.06,0-4.12-.17-6.26,0,0,5.57-3.6,5.57-8.83,0-3.52-4.03-7.37-5.49-10.8s-3-8.06-3-8.06l-11.75-3.52c-3.94,.43-7.63,1.97-10.8,4.29-5.06,3.86-8.83,9.09-15.78,17.32-6.17,7.12-15.52,21.18-17.15,23.66"/><path id="Path_10008" class="cls-4" d="M296.26,21.54c-1.89-1.37-3.34-3.43-3.94-5.74-.17-1.03-.6-1.97-1.11-2.83-1.03-1.71-6.94-.51-8.32,1.29-3.34,4.29-6.86,8.49-10.12,12.77l-.09,.09c1.03,1.89,2.14,3.52,3,4.8,.6,1.03,1.03,2.14,1.2,3.34,.09,.94,.17,1.97,.17,2.91,4.97,1.8,9.17,9.77,10.55,9.86,1.29,.09,1.8-2.74,1.8-6.6s-.17-5.74,0-6.26c.43-1.63,2.23-.94,5.32-2.83,1.71-1.11,1.29-4.29,.34-8.14-.17-.43,2.83-1.54,1.2-2.66"/><path id="Path_10009" d="M291.29,12.97c-1.63,.17-3.17,.86-4.46,1.89-3.43,3-1.03,5.23-3.17,8.14-2.06,2.74-4.03,2.06-4.63,5.66s-.17,5.06-2.14,6.52c-.17-1.2-.51-2.31-1.2-3.34-2.83-4.46-9.52-13.2-2.4-20.23,6.09-5.92,14.66-4.29,18,1.37"/><path id="Path_10010" d="M291.29,12.97c-.51,3.26-4.89,2.74-5.4,8.57-.51,5.83-4.37,3.69-5.14,8.49s-1.03,7.46-3.69,8.14c-2.66,.69-7.2-6.94-7.2-6.94l.34-8.23,9.6-11.57,9.6-.43,1.89,1.97Z"/><path id="Path_10011" d="M270.28,17.34l-.34,1.29c-.09,.43-.26,.86-.34,1.29l-.43,1.29-.09,.34-.17,.34-.34,.6c-.43,.86-.86,1.63-1.37,2.4-.26,.34-.51,.77-.86,1.11-.17,.17-.26,.34-.43,.51l-.43,.51c-1.2,1.37-2.66,2.57-4.2,3.6s-3.26,1.8-4.97,2.4h0c-.09,0-.09,.09-.09,.09,0,.09,.09,.09,.09,.09,1.8-.51,3.52-1.29,5.14-2.23s3.09-2.14,4.37-3.52l.51-.51c.17-.17,.34-.34,.43-.51,.26-.34,.6-.69,.86-1.11,.51-.77,1.03-1.54,1.46-2.4l.34-.6,.17-.34,.17-.34,.51-1.29c.17-.43,.34-.86,.43-1.37l.43-1.37c.09-.26-.09-.51-.34-.6-.17-.09-.43,.09-.51,.34h0Z"/><path id="Path_10012" class="cls-4" d="M277.06,38.26c4.72,1.54,8.83,18.52,9,19.03,.17,.51,8.06,.17,7.8-1.03s-4.46-8.57-4.46-14.83-5.32-2.57-5.32-2.57l-7.03-.6Z"/><line id="Line_5" class="cls-7" x1="9.14" y1="264.95" x2="472.02" y2="264.95"/><path id="Path_10013" class="cls-6" d="M79.95,256.12H9.14s-.34-23.49,0-23.83,70.65-.26,70.82,0,0,23.83,0,23.83"/><g class="cls-9"><path d="M34,280.21c1.71,0,2.4-.43,2.66-1.46h1.71v9.77h-2.4v-6.77h-1.97v-1.54Z"/><path d="M40.77,283.64h3.86v1.89h-3.86v-1.89Z"/><path d="M48.83,284.32h-2.14l.6-5.57h6.17v1.8h-4.46l-.17,1.97c.34-.34,1.03-.69,1.97-.69,2.06,0,3.34,1.37,3.34,3.43,0,1.89-1.37,3.43-3.77,3.43s-3.86-1.29-4.03-3.17h2.4c.09,.86,.69,1.46,1.63,1.46,1.03,0,1.54-.77,1.54-1.63,0-.94-.51-1.71-1.54-1.71-.86,0-1.29,.34-1.54,.69Z"/></g><g class="cls-9"><path d="M29.37,304.13c-2.74,0-4.37-1.37-4.37-4.12v-5.83h2.4v5.83c0,1.37,.51,2.31,1.97,2.31s1.97-.94,1.97-2.31v-5.83h2.4v5.92c0,2.66-1.63,4.03-4.37,4.03Z"/><path d="M37.17,301.81c.09,.6,.69,.86,1.29,.86s1.03-.17,1.03-.69c0-.34-.26-.51-.94-.6l-1.29-.17c-1.2-.17-2.06-.77-2.06-2.06,0-1.46,1.37-2.4,3.09-2.4,1.97,0,3.09,.86,3.26,2.23h-2.06c-.09-.51-.51-.77-1.2-.77-.6,0-.94,.26-.94,.6s.34,.51,.94,.6l1.37,.26c1.29,.17,2.06,.94,2.06,2.06,0,1.46-1.37,2.31-3.17,2.31-1.97,0-3.34-.77-3.52-2.31h2.14v.09Z"/><path d="M46.34,304.13c-2.06,0-3.69-1.37-3.69-3.69s1.63-3.69,3.69-3.69c2.31,0,3.43,1.63,3.43,3.6v.6h-4.89c.09,.94,.6,1.54,1.54,1.54,.69,0,1.11-.34,1.29-.86h2.14c-.43,1.54-1.71,2.49-3.52,2.49Zm-1.46-4.37h2.74c0-.69-.43-1.37-1.29-1.37-.77,0-1.29,.51-1.46,1.37Z"/><path d="M56.12,298.98c-.26,0-.51-.09-.77-.09-1.03,0-1.8,.6-1.8,1.97v3.09h-2.31v-7.03h2.23v1.46c.34-1.03,1.11-1.63,2.06-1.63,.17,0,.34,0,.51,.09v2.14h.09Z"/><path d="M58.95,301.81c.09,.6,.69,.86,1.29,.86s1.03-.17,1.03-.69c0-.34-.26-.51-.94-.6l-1.29-.17c-1.2-.17-2.06-.77-2.06-2.06,0-1.46,1.37-2.4,3.09-2.4,1.97,0,3.09,.86,3.26,2.23h-2.06c-.09-.51-.51-.77-1.2-.77-.6,0-.94,.26-.94,.6s.34,.51,.94,.6l1.37,.26c1.29,.17,2.06,.94,2.06,2.06,0,1.46-1.37,2.31-3.17,2.31-1.97,0-3.34-.77-3.52-2.31h2.14v.09Z"/></g><path id="Path_10014" class="cls-6" d="M177.95,256.72H107.13s-.34-48.01,0-48.44,70.65-.26,70.82,0,0,48.44,0,48.44"/><g class="cls-9"><path d="M128.22,283.21c.43-.69,1.2-1.2,2.31-1.2,1.97,0,3.43,1.37,3.43,3.34s-1.46,3.43-3.77,3.43-4.12-1.89-4.12-4.89c0-3.17,1.71-5.23,4.29-5.23,1.97,0,3.26,1.2,3.52,2.83h-2.14c-.17-.6-.6-1.03-1.46-1.03-1.29-.09-2.06,1.11-2.06,2.74Zm3.6,2.14c0-1.03-.69-1.71-1.63-1.71-1.03,0-1.71,.69-1.71,1.71s.69,1.71,1.71,1.71c.94,0,1.63-.77,1.63-1.71Z"/></g><g class="cls-9"><path d="M135.68,283.64h3.86v1.89h-3.86v-1.89Z"/></g><g class="cls-9"><path d="M145.62,285.09c-1.2,.6-1.89,1.11-1.89,1.63h4.89v1.8h-7.54v-.86c0-2.06,1.71-3.17,3.17-4.03,1.37-.77,2.14-1.2,2.14-2.06,0-.77-.43-1.2-1.37-1.2s-1.46,.69-1.54,1.63h-2.31c.17-1.89,1.46-3.43,3.86-3.43,2.14,0,3.6,1.29,3.6,3.09-.09,1.71-1.29,2.57-3,3.43Z"/><path d="M154.03,278.58c2.74,0,4.37,2.14,4.37,5.06s-1.71,5.06-4.37,5.06-4.37-2.14-4.37-5.06c-.09-2.91,1.63-5.06,4.37-5.06Zm0,8.32c1.37,0,1.97-1.2,1.97-3.26s-.6-3.26-1.97-3.26-1.97,1.2-1.97,3.26,.6,3.26,1.97,3.26Z"/></g><g class="cls-9"><path d="M127.36,304.13c-2.74,0-4.37-1.37-4.37-4.12v-5.83h2.4v5.83c0,1.37,.51,2.31,1.97,2.31s1.97-.94,1.97-2.31v-5.83h2.4v5.92c0,2.66-1.63,4.03-4.37,4.03Z"/><path d="M135.17,301.81c.09,.6,.69,.86,1.29,.86s1.03-.17,1.03-.69c0-.34-.26-.51-.94-.6l-1.29-.17c-1.2-.17-2.06-.77-2.06-2.06,0-1.46,1.37-2.4,3.09-2.4,1.97,0,3.09,.86,3.26,2.23h-2.06c-.09-.51-.51-.77-1.2-.77-.6,0-.94,.26-.94,.6s.34,.51,.94,.6l1.37,.26c1.29,.17,2.06,.94,2.06,2.06,0,1.46-1.37,2.31-3.17,2.31-1.97,0-3.34-.77-3.52-2.31h2.14v.09Z"/><path d="M144.34,304.13c-2.06,0-3.69-1.37-3.69-3.69s1.63-3.69,3.69-3.69c2.31,0,3.43,1.63,3.43,3.6v.6h-4.89c.09,.94,.6,1.54,1.54,1.54,.69,0,1.11-.34,1.29-.86h2.14c-.43,1.54-1.71,2.49-3.52,2.49Zm-1.46-4.37h2.74c0-.69-.43-1.37-1.29-1.37-.77,0-1.29,.51-1.46,1.37Z"/><path d="M154.11,298.98c-.26,0-.51-.09-.77-.09-1.03,0-1.8,.6-1.8,1.97v3.09h-2.31v-7.03h2.23v1.46c.34-1.03,1.11-1.63,2.06-1.63,.17,0,.34,0,.51,.09v2.14h.09Z"/><path d="M156.94,301.81c.09,.6,.69,.86,1.29,.86s1.03-.17,1.03-.69c0-.34-.26-.51-.94-.6l-1.29-.17c-1.2-.17-2.06-.77-2.06-2.06,0-1.46,1.37-2.4,3.09-2.4,1.97,0,3.09,.86,3.26,2.23h-2.06c-.09-.51-.51-.77-1.2-.77-.6,0-.94,.26-.94,.6s.34,.51,.94,.6l1.37,.26c1.29,.17,2.06,.94,2.06,2.06,0,1.46-1.37,2.31-3.17,2.31-1.97,0-3.34-.77-3.52-2.31h2.14v.09Z"/></g><g class="cls-9"><path class="cls-2" d="M127.02,228.25v1.54h-1.29v-1.54c-2.4-.26-4.03-1.46-4.2-3.52h2.49c.09,1.03,.86,1.46,1.8,1.63v-2.74l-.86-.17c-1.71-.26-3-1.11-3-3.09s1.63-3.26,3.86-3.43v-1.46h1.29v1.46c2.31,.26,3.6,1.46,3.86,3.26h-2.4c-.09-.77-.6-1.2-1.46-1.37v2.66l1.03,.17c1.89,.34,2.91,1.29,2.91,3.09-.09,2.14-1.8,3.34-4.03,3.52Zm-1.37-6.94v-2.49c-.94,.09-1.46,.6-1.46,1.29,0,.77,.43,1.03,1.46,1.2Zm1.37,2.49v2.57c1.03-.09,1.63-.51,1.63-1.29,0-.77-.43-1.11-1.63-1.29Z"/></g><g class="cls-9"><path class="cls-2" d="M134.82,223.36h-2.4l.69-6.26h6.94v2.06h-5.06l-.26,2.14c.34-.34,1.11-.69,2.23-.69,2.23,0,3.77,1.63,3.77,3.86s-1.63,3.86-4.29,3.86-4.29-1.46-4.46-3.6h2.66c.09,.94,.77,1.63,1.8,1.63,1.11,0,1.71-.86,1.71-1.89s-.6-1.89-1.71-1.89c-.86,0-1.37,.34-1.63,.77Z"/></g><g class="cls-9"><path class="cls-2" d="M146.74,216.93c3,0,4.97,2.4,4.97,5.66s-1.89,5.66-4.97,5.66-4.97-2.4-4.97-5.66,1.89-5.66,4.97-5.66Zm0,9.35c1.54,0,2.23-1.37,2.23-3.69s-.69-3.69-2.23-3.69-2.23,1.37-2.23,3.69c0,2.31,.69,3.69,2.23,3.69Z"/></g><g class="cls-9"><path class="cls-2" d="M157.8,216.93c3,0,4.97,2.4,4.97,5.66s-1.89,5.66-4.97,5.66-4.97-2.4-4.97-5.66,1.97-5.66,4.97-5.66Zm0,9.35c1.54,0,2.23-1.37,2.23-3.69s-.69-3.69-2.23-3.69-2.23,1.37-2.23,3.69,.69,3.69,2.23,3.69Z"/></g><path id="Path_10015" class="cls-6" d="M275.94,256.72h-70.82s-.34-70.9,0-71.33,70.65-.26,70.82,0,0,71.33,0,71.33"/><g class="cls-9"><path d="M225.1,285.09c-1.2,.6-1.89,1.11-1.89,1.63h4.89v1.8h-7.54v-.86c0-2.06,1.71-3.17,3.17-4.03,1.37-.77,2.14-1.2,2.14-2.06,0-.77-.43-1.2-1.37-1.2s-1.46,.69-1.54,1.63h-2.31c.17-1.89,1.46-3.43,3.86-3.43,2.14,0,3.6,1.29,3.6,3.09-.09,1.71-1.29,2.57-3,3.43Z"/></g><g class="cls-9"><path d="M229.22,280.21c1.71,0,2.4-.43,2.66-1.46h1.71v9.77h-2.4v-6.77h-1.97v-1.54h0Z"/><path d="M235.99,283.64h3.86v1.89h-3.86v-1.89Z"/><path d="M248.51,284.49h1.8v1.8h-1.8v2.23h-2.31v-2.23h-4.8v-1.8l4.54-5.74h2.57v5.74h0Zm-5.06,0h2.83v-3.69l-2.83,3.69Z"/><path d="M256.91,284.06c-.43,.69-1.2,1.2-2.31,1.2-1.97,0-3.43-1.37-3.43-3.34s1.46-3.43,3.77-3.43,4.12,1.89,4.12,4.89c0,3.17-1.71,5.23-4.29,5.23-1.97,0-3.26-1.2-3.52-2.83h2.14c.17,.6,.6,1.03,1.46,1.03,1.29,.17,2.06-1.11,2.06-2.74Zm-3.52-2.06c0,1.03,.69,1.71,1.63,1.71,1.03,0,1.71-.69,1.71-1.71s-.69-1.71-1.71-1.71-1.63,.69-1.63,1.71Z"/></g><g class="cls-9"><path d="M225.36,304.13c-2.74,0-4.37-1.37-4.37-4.12v-5.83h2.4v5.83c0,1.37,.51,2.31,1.97,2.31s1.97-.94,1.97-2.31v-5.83h2.4v5.92c0,2.66-1.63,4.03-4.37,4.03Z"/><path d="M233.16,301.81c.09,.6,.69,.86,1.29,.86s1.03-.17,1.03-.69c0-.34-.26-.51-.94-.6l-1.29-.17c-1.2-.17-2.06-.77-2.06-2.06,0-1.46,1.37-2.4,3.09-2.4,1.97,0,3.09,.86,3.26,2.23h-2.06c-.09-.51-.51-.77-1.2-.77-.6,0-.94,.26-.94,.6s.34,.51,.94,.6l1.37,.26c1.29,.17,2.06,.94,2.06,2.06,0,1.46-1.37,2.31-3.17,2.31-1.97,0-3.34-.77-3.52-2.31h2.14v.09Z"/><path d="M242.42,304.13c-2.06,0-3.69-1.37-3.69-3.69s1.63-3.69,3.69-3.69c2.31,0,3.43,1.63,3.43,3.6v.6h-4.89c.09,.94,.6,1.54,1.54,1.54,.69,0,1.11-.34,1.29-.86h2.14c-.43,1.54-1.71,2.49-3.52,2.49Zm-1.54-4.37h2.74c0-.69-.43-1.37-1.29-1.37-.77,0-1.29,.51-1.46,1.37Z"/><path d="M252.11,298.98c-.26,0-.51-.09-.77-.09-1.03,0-1.8,.6-1.8,1.97v3.09h-2.31v-7.03h2.23v1.46c.34-1.03,1.11-1.63,2.06-1.63,.17,0,.34,0,.51,.09v2.14h.09Z"/><path d="M254.94,301.81c.09,.6,.69,.86,1.29,.86s1.03-.17,1.03-.69c0-.34-.26-.51-.94-.6l-1.29-.17c-1.2-.17-2.06-.77-2.06-2.06,0-1.46,1.37-2.4,3.09-2.4,1.97,0,3.09,.86,3.26,2.23h-2.06c-.09-.51-.51-.77-1.2-.77-.6,0-.94,.26-.94,.6s.34,.51,.94,.6l1.37,.26c1.29,.17,2.06,.94,2.06,2.06,0,1.46-1.37,2.31-3.17,2.31-1.97,0-3.34-.77-3.52-2.31h2.14v.09Z"/></g><g class="cls-9"><path class="cls-2" d="M219.01,206.65v1.54h-1.29v-1.54c-2.4-.26-4.03-1.46-4.2-3.52h2.49c.09,1.03,.86,1.46,1.8,1.63v-2.74l-.86-.17c-1.71-.26-3-1.11-3-3.09s1.63-3.26,3.86-3.43v-1.46h1.29v1.46c2.31,.26,3.6,1.46,3.86,3.26h-2.4c-.09-.77-.6-1.2-1.46-1.37v2.66l1.03,.17c1.89,.34,2.91,1.29,2.91,3.09,0,2.06-1.71,3.34-4.03,3.52Zm-1.29-6.94v-2.49c-.94,.09-1.46,.6-1.46,1.29-.09,.77,.43,1.03,1.46,1.2Zm1.29,2.49v2.57c1.03-.09,1.63-.51,1.63-1.29s-.34-1.11-1.63-1.29Z"/></g><g class="cls-9"><path class="cls-2" d="M223.99,197.04c1.89,0,2.66-.51,2.91-1.63h1.89v11.06h-2.66v-7.63h-2.23v-1.8h.09Z"/></g><g class="cls-9"><path class="cls-2" d="M231.19,203.65h2.83v2.91c0,1.8-1.2,2.66-3,2.66v-1.37c.86,0,1.54-.26,1.54-1.29v-.17h-1.29v-2.74h-.09Z"/></g><g class="cls-9"><path class="cls-2" d="M241.05,202.62c-1.37,.69-2.06,1.2-2.14,1.8h5.49v2.06h-8.49v-.94c0-2.31,1.89-3.6,3.52-4.54,1.54-.94,2.4-1.37,2.4-2.31,0-.86-.51-1.37-1.54-1.37s-1.63,.77-1.71,1.8h-2.57c.17-2.14,1.71-3.86,4.29-3.86,2.4,0,4.03,1.37,4.03,3.43,.09,1.97-1.29,2.92-3.26,3.94Z"/></g><g class="cls-9"><path class="cls-2" d="M250.39,195.24c3,0,4.97,2.4,4.97,5.66s-1.89,5.66-4.97,5.66-4.97-2.4-4.97-5.66c0-3.26,1.89-5.66,4.97-5.66Zm0,9.43c1.54,0,2.23-1.37,2.23-3.69s-.69-3.69-2.23-3.69-2.23,1.37-2.23,3.69c-.09,2.31,.69,3.69,2.23,3.69Z"/></g><g class="cls-9"><path class="cls-2" d="M261.45,195.24c3,0,4.97,2.4,4.97,5.66s-1.89,5.66-4.97,5.66-4.97-2.4-4.97-5.66,1.89-5.66,4.97-5.66Zm0,9.43c1.54,0,2.23-1.37,2.23-3.69s-.69-3.69-2.23-3.69-2.23,1.37-2.23,3.69,.69,3.69,2.23,3.69Z"/></g><path id="Path_10016" class="cls-3" d="M373.94,256.72h-70.82s-.34-117.29,0-117.71,70.65-.26,70.82,0,0,117.71,0,117.71"/><g class="cls-9"><path d="M316.49,284.32h-2.14l.6-5.57h6.17v1.8h-4.46l-.17,1.97c.34-.34,1.03-.69,1.97-.69,2.06,0,3.34,1.37,3.34,3.43,0,1.89-1.37,3.43-3.77,3.43s-3.86-1.29-4.03-3.17h2.4c.09,.86,.69,1.46,1.63,1.46,1.03,0,1.54-.77,1.54-1.63,0-.94-.51-1.71-1.54-1.71-.86,0-1.37,.34-1.54,.69Z"/><path d="M327.21,278.58c2.74,0,4.37,2.14,4.37,5.06s-1.71,5.06-4.37,5.06-4.37-2.14-4.37-5.06c-.09-2.91,1.63-5.06,4.37-5.06Zm0,8.32c1.37,0,1.97-1.2,1.97-3.26s-.6-3.26-1.97-3.26-1.97,1.2-1.97,3.26c-.09,2.06,.6,3.26,1.97,3.26Z"/><path d="M333.3,283.64h3.86v1.89h-3.86v-1.89Z"/><path d="M338.87,280.21c1.71,0,2.4-.43,2.66-1.46h1.71v9.77h-2.49v-6.77h-1.97v-1.54h.09Z"/><path d="M349.42,278.58c2.74,0,4.37,2.14,4.37,5.06s-1.71,5.06-4.37,5.06-4.37-2.14-4.37-5.06c-.09-2.91,1.63-5.06,4.37-5.06Zm0,8.32c1.37,0,1.97-1.2,1.97-3.26s-.6-3.26-1.97-3.26-1.97,1.2-1.97,3.26c-.09,2.06,.6,3.26,1.97,3.26Z"/><path d="M359.28,278.58c2.74,0,4.37,2.14,4.37,5.06s-1.71,5.06-4.37,5.06-4.37-2.14-4.37-5.06c-.09-2.91,1.63-5.06,4.37-5.06Zm0,8.32c1.37,0,1.97-1.2,1.97-3.26s-.6-3.26-1.97-3.26-1.97,1.2-1.97,3.26c-.09,2.06,.6,3.26,1.97,3.26Z"/></g><g class="cls-9"><path d="M323.87,304.13c-2.74,0-4.37-1.37-4.37-4.12v-5.83h2.4v5.83c0,1.37,.51,2.31,1.97,2.31s1.97-.94,1.97-2.31v-5.83h2.4v5.92c0,2.66-1.63,4.03-4.37,4.03Z"/><path d="M331.67,301.81c.09,.6,.69,.86,1.29,.86s1.03-.17,1.03-.69c0-.34-.26-.51-.94-.6l-1.29-.17c-1.2-.17-2.06-.77-2.06-2.06,0-1.46,1.37-2.4,3.09-2.4,1.97,0,3.09,.86,3.26,2.23h-2.06c-.09-.51-.51-.77-1.2-.77-.6,0-.94,.26-.94,.6s.34,.51,.94,.6l1.37,.26c1.29,.17,2.06,.94,2.06,2.06,0,1.46-1.37,2.31-3.17,2.31-1.97,0-3.34-.77-3.52-2.31h2.14v.09Z"/><path d="M340.93,304.13c-2.06,0-3.69-1.37-3.69-3.69s1.63-3.69,3.69-3.69c2.31,0,3.43,1.63,3.43,3.6v.6h-4.89c.09,.94,.6,1.54,1.54,1.54,.69,0,1.11-.34,1.29-.86h2.14c-.43,1.54-1.71,2.49-3.52,2.49Zm-1.54-4.37h2.74c0-.69-.43-1.37-1.29-1.37-.77,0-1.29,.51-1.46,1.37Z"/><path d="M350.62,298.98c-.26,0-.51-.09-.77-.09-1.03,0-1.8,.6-1.8,1.97v3.09h-2.31v-7.03h2.23v1.46c.34-1.03,1.11-1.63,2.06-1.63,.17,0,.34,0,.51,.09v2.14h.09Z"/><path d="M353.45,301.81c.09,.6,.69,.86,1.29,.86s1.03-.17,1.03-.69c0-.34-.26-.51-.94-.6l-1.29-.17c-1.2-.17-2.06-.77-2.06-2.06,0-1.46,1.37-2.4,3.09-2.4,1.97,0,3.09,.86,3.26,2.23h-2.06c-.09-.51-.51-.77-1.2-.77-.6,0-.94,.26-.94,.6s.34,.51,.94,.6l1.37,.26c1.29,.17,2.06,.94,2.06,2.06,0,1.46-1.37,2.31-3.17,2.31-1.97,0-3.34-.77-3.52-2.31h2.14v.09Z"/></g><g class="cls-9"><path class="cls-2" d="M314.44,160.52v1.54h-1.29v-1.54c-2.4-.26-4.03-1.46-4.2-3.52h2.49c.09,1.03,.86,1.46,1.8,1.63v-2.74l-.86-.17c-1.71-.26-3-1.11-3-3.09s1.63-3.26,3.86-3.43v-1.46h1.29v1.46c2.31,.26,3.6,1.46,3.86,3.26h-2.49c-.09-.77-.6-1.2-1.46-1.37v2.66l1.03,.17c1.89,.34,2.91,1.29,2.91,3.09,.09,2.06-1.63,3.34-3.94,3.52Zm-1.29-6.94v-2.49c-.94,.09-1.46,.6-1.46,1.29-.09,.77,.43,.94,1.46,1.2Zm1.29,2.49v2.57c1.03-.09,1.63-.51,1.63-1.29,0-.77-.43-1.11-1.63-1.29Z"/></g><g class="cls-9"><path class="cls-2" d="M324.47,156.41c-1.37,.69-2.06,1.2-2.14,1.8h5.49v2.06h-8.49v-.94c0-2.31,1.89-3.6,3.52-4.54,1.54-.94,2.4-1.37,2.4-2.31,0-.86-.51-1.37-1.54-1.37s-1.63,.77-1.71,1.8h-2.57c.17-2.14,1.71-3.86,4.29-3.86,2.4,0,4.03,1.37,4.03,3.43,.09,2.06-1.29,3-3.26,3.94Z"/></g><g class="cls-9"><path class="cls-2" d="M329.61,157.52h2.83v2.91c0,1.8-1.2,2.66-3,2.66v-1.29c.86,0,1.54-.26,1.54-1.29v-.17h-1.37v-2.83Z"/></g><g class="cls-9"><path class="cls-2" d="M336.81,155.63h-2.4l.69-6.26h6.94v2.06h-5.06l-.26,2.14c.34-.34,1.11-.69,2.23-.69,2.23,0,3.77,1.63,3.77,3.86s-1.63,3.86-4.29,3.86-4.29-1.46-4.46-3.6h2.66c.09,.94,.77,1.63,1.8,1.63,1.11,0,1.71-.86,1.71-1.89s-.6-1.89-1.71-1.89c-.86-.09-1.37,.34-1.63,.77Z"/></g><g class="cls-9"><path class="cls-2" d="M348.73,149.12c3,0,4.97,2.4,4.97,5.66s-1.89,5.66-4.97,5.66-4.97-2.4-4.97-5.66,1.89-5.66,4.97-5.66Zm0,9.43c1.54,0,2.23-1.37,2.23-3.69s-.69-3.69-2.23-3.69-2.23,1.37-2.23,3.69c-.09,2.31,.69,3.69,2.23,3.69Z"/></g><g class="cls-9"><path class="cls-2" d="M359.79,149.12c3,0,4.97,2.4,4.97,5.66s-1.89,5.66-4.97,5.66-4.97-2.4-4.97-5.66c0-3.26,1.89-5.66,4.97-5.66Zm0,9.43c1.54,0,2.23-1.37,2.23-3.69s-.69-3.69-2.23-3.69-2.23,1.37-2.23,3.69,.69,3.69,2.23,3.69Z"/></g><path id="Path_10017" class="cls-3" d="M471.93,256.72h-70.82s-.34-165.98,0-166.41,70.65-.26,70.82,0,0,166.41,0,166.41"/><g class="cls-9"><path d="M421.69,280.21c1.71,0,2.4-.43,2.66-1.46h1.71v9.77h-2.4v-6.77h-1.97v-1.54Z"/><path d="M432.24,278.58c2.74,0,4.37,2.14,4.37,5.06s-1.71,5.06-4.37,5.06-4.37-2.14-4.37-5.06c0-2.91,1.71-5.06,4.37-5.06Zm0,8.32c1.37,0,1.97-1.2,1.97-3.26s-.6-3.26-1.97-3.26-1.97,1.2-1.97,3.26,.6,3.26,1.97,3.26Z"/></g><g class="cls-9"><path d="M437.64,280.21c1.71,0,2.4-.43,2.66-1.46h1.71v9.77h-2.4v-6.77h-1.97v-1.54Z"/></g><g class="cls-9"><path d="M448.27,284.84v2.83h-1.63v-2.83h-2.83v-1.63h2.83v-2.83h1.63v2.83h2.83v1.63h-2.83Z"/></g><g class="cls-9"><path d="M421.35,304.13c-2.74,0-4.37-1.37-4.37-4.12v-5.83h2.4v5.83c0,1.37,.51,2.31,1.97,2.31s1.97-.94,1.97-2.31v-5.83h2.4v5.92c0,2.66-1.54,4.03-4.37,4.03Z"/><path d="M429.15,301.81c.09,.6,.69,.86,1.29,.86s1.03-.17,1.03-.69c0-.34-.26-.51-.94-.6l-1.29-.17c-1.2-.17-2.06-.77-2.06-2.06,0-1.46,1.37-2.4,3.09-2.4,1.97,0,3.09,.86,3.26,2.23h-2.06c-.09-.51-.51-.77-1.2-.77-.6,0-.94,.26-.94,.6s.34,.51,.94,.6l1.37,.26c1.29,.17,2.06,.94,2.06,2.06,0,1.46-1.37,2.31-3.17,2.31-1.97,0-3.34-.77-3.52-2.31h2.14v.09Z"/><path d="M438.41,304.13c-2.06,0-3.69-1.37-3.69-3.69s1.63-3.69,3.69-3.69c2.31,0,3.43,1.63,3.43,3.6v.6h-4.89c.09,.94,.6,1.54,1.54,1.54,.69,0,1.11-.34,1.29-.86h2.14c-.43,1.54-1.71,2.49-3.52,2.49Zm-1.46-4.37h2.74c0-.69-.43-1.37-1.29-1.37s-1.29,.51-1.46,1.37Z"/><path d="M448.1,298.98c-.26,0-.51-.09-.77-.09-1.03,0-1.8,.6-1.8,1.97v3.09h-2.31v-7.03h2.23v1.46c.34-1.03,1.11-1.63,2.06-1.63,.17,0,.34,0,.51,.09v2.14h.09Z"/><path d="M451.01,301.81c.09,.6,.69,.86,1.29,.86s1.03-.17,1.03-.69c0-.34-.26-.51-.94-.6l-1.29-.17c-1.2-.17-2.06-.77-2.06-2.06,0-1.46,1.37-2.4,3.09-2.4,1.97,0,3.09,.86,3.26,2.23h-2.06c-.09-.51-.51-.77-1.2-.77-.6,0-.94,.26-.94,.6s.34,.51,.94,.6l1.37,.26c1.29,.17,2.06,.94,2.06,2.06,0,1.46-1.37,2.31-3.17,2.31-1.97,0-3.34-.77-3.52-2.31h2.14v.09Z"/></g><g class="cls-9"><path class="cls-2" d="M414.15,110.37v1.54h-1.29v-1.54c-2.4-.26-4.03-1.46-4.2-3.52h2.49c.09,1.03,.86,1.46,1.8,1.63v-2.74l-.86-.17c-1.71-.26-3-1.11-3-3.09s1.63-3.26,3.86-3.43v-1.46h1.29v1.46c2.31,.26,3.6,1.46,3.86,3.26h-2.4c-.09-.77-.6-1.2-1.46-1.37v2.66l1.03,.17c1.89,.34,2.92,1.29,2.92,3.09,0,2.14-1.71,3.34-4.03,3.52Zm-1.29-6.94v-2.49c-.94,.09-1.46,.6-1.46,1.29-.09,.77,.43,1.03,1.46,1.2Zm1.29,2.49v2.57c1.03-.09,1.63-.51,1.63-1.29s-.34-1.11-1.63-1.29Z"/></g><g class="cls-9"><path class="cls-2" d="M422.03,105.48h-2.4l.69-6.26h6.94v2.06h-5.06l-.26,2.14c.34-.34,1.11-.69,2.23-.69,2.23,0,3.77,1.63,3.77,3.86s-1.63,3.86-4.29,3.86-4.29-1.46-4.46-3.6h2.66c.09,.94,.77,1.63,1.8,1.63,1.11,0,1.71-.86,1.71-1.89s-.6-1.89-1.71-1.89c-.86,0-1.37,.34-1.63,.77Z"/></g><g class="cls-9"><path class="cls-2" d="M429.49,107.37h2.83v2.91c0,1.8-1.2,2.66-3,2.66v-1.29c.86,0,1.54-.26,1.54-1.29v-.26h-1.29v-2.74h-.09Z"/></g><g class="cls-9"><path class="cls-2" d="M438.5,99.05c3,0,4.97,2.4,4.97,5.66s-1.89,5.66-4.97,5.66-4.97-2.4-4.97-5.66,1.89-5.66,4.97-5.66Zm0,9.35c1.54,0,2.23-1.37,2.23-3.69s-.69-3.69-2.23-3.69-2.23,1.37-2.23,3.69,.69,3.69,2.23,3.69Z"/><path class="cls-2" d="M449.55,99.05c3,0,4.97,2.4,4.97,5.66s-1.89,5.66-4.97,5.66-4.97-2.4-4.97-5.66c.09-3.34,1.97-5.66,4.97-5.66Zm0,9.35c1.54,0,2.23-1.37,2.23-3.69s-.69-3.69-2.23-3.69-2.23,1.37-2.23,3.69c0,2.31,.77,3.69,2.23,3.69Z"/></g><g class="cls-9"><path class="cls-2" d="M460.7,99.05c3,0,4.97,2.4,4.97,5.66s-1.89,5.66-4.97,5.66-4.97-2.4-4.97-5.66c0-3.34,1.89-5.66,4.97-5.66Zm0,9.35c1.54,0,2.23-1.37,2.23-3.69s-.69-3.69-2.23-3.69-2.23,1.37-2.23,3.69c-.09,2.31,.69,3.69,2.23,3.69Z"/></g><g class="cls-9"><path class="cls-2" d="M29.28,249.17v1.54h-1.29v-1.54c-2.4-.26-4.03-1.46-4.2-3.52h2.49c.09,1.03,.86,1.46,1.8,1.63v-2.74l-.86-.17c-1.71-.26-3-1.11-3-3.09s1.63-3.26,3.86-3.43v-1.46h1.29v1.46c2.31,.26,3.6,1.46,3.86,3.26h-2.4c-.09-.77-.6-1.2-1.46-1.37v2.66l1.03,.17c1.89,.34,2.91,1.29,2.91,3.09-.09,2.06-1.8,3.34-4.03,3.52Zm-1.37-6.94v-2.49c-.94,.09-1.46,.6-1.46,1.29,0,.77,.43,.94,1.46,1.2Zm1.37,2.49v2.57c1.03-.09,1.63-.51,1.63-1.29,0-.77-.43-1.11-1.63-1.29Z"/></g><g class="cls-9"><path class="cls-2" d="M39.31,245.06c-1.37,.69-2.06,1.2-2.14,1.8h5.49v2.06h-8.49v-.94c0-2.31,1.89-3.6,3.52-4.54,1.54-.94,2.4-1.37,2.4-2.31,0-.86-.51-1.37-1.54-1.37s-1.63,.77-1.71,1.8h-2.57c.17-2.14,1.71-3.86,4.29-3.86,2.4,0,4.03,1.37,4.03,3.43,.09,2.06-1.37,3-3.26,3.94Z"/></g><g class="cls-9"><path class="cls-2" d="M48.57,237.77c3,0,4.97,2.4,4.97,5.66s-1.89,5.66-4.97,5.66-4.97-2.4-4.97-5.66c.09-3.26,1.97-5.66,4.97-5.66Zm0,9.43c1.54,0,2.23-1.37,2.23-3.69s-.69-3.69-2.23-3.69-2.23,1.37-2.23,3.69,.69,3.69,2.23,3.69Z"/></g><g class="cls-9"><path class="cls-2" d="M59.72,237.77c3,0,4.97,2.4,4.97,5.66s-1.89,5.66-4.97,5.66-4.97-2.4-4.97-5.66c0-3.26,1.89-5.66,4.97-5.66Zm0,9.43c1.54,0,2.23-1.37,2.23-3.69s-.69-3.69-2.23-3.69-2.23,1.37-2.23,3.69c-.09,2.31,.69,3.69,2.23,3.69Z"/></g></g></svg>